<svg id="Layer_35" enable-background="new 0 0 64 64"  viewBox="0 0 64 64"  xmlns="http://www.w3.org/2000/svg"><path d="m35 3h2.001v10h-2.001z"/><path d="m61 8c0-1.302-.839-2.402-2-2.816v1.816h-2v-2h-2v4h-2v-4h-2v2h-2v-2h-2v4h-2v-4h-2v2h-2v-2h-2v6h19c1.654 0 3-1.346 3-3z"/><path d="m28.8 41c-4.753 0-8.724-3.403-9.611-7.9-.122.623-.189 1.258-.189 1.9 0 5.514 4.486 10 10 10s10-4.486 10-10c0-.642-.067-1.277-.188-1.9-.888 4.497-4.858 7.9-9.612 7.9z"/><path d="m49 40c0-1.654-1.794-3-4-3-.045 0-.095.011-.141.013-.252 1.998-.862 3.887-1.783 5.586.592.255 1.248.401 1.924.401 2.206 0 4-1.346 4-3z"/><path d="m3.743 56.672c-.479.479-.743 1.116-.743 1.793 0 1.397 1.138 2.535 2.536 2.535.678 0 1.314-.264 1.793-.742l8.757-8.758-3.586-3.586z"/><path d="m16.052 44.362-2.138 2.138 3.586 3.586 2.138-2.138c-1.377-.999-2.587-2.209-3.586-3.586z"/><path d="m21 31.2c0 4.301 3.499 7.8 7.8 7.8h.4c4.301 0 7.8-3.499 7.8-7.8 0-1.276-.317-2.546-.917-3.671l-6.494-12.176c-.117-.218-.342-.353-.589-.353s-.472.135-.588.353v.001l-6.494 12.176c-.601 1.124-.918 2.394-.918 3.67zm13.318-2.729c.446.837.682 1.781.682 2.729 0 3.198-2.602 5.8-5.8 5.8h-.2v-2h.2c2.095 0 3.8-1.705 3.8-3.8 0-.622-.154-1.24-.447-1.788l-2.102-3.941 1.765-.941zm-4.235-7.942 1.066 2-1.765.941-1.066-2z"/><path d="m45 33c-.043 0-.091.004-.136.005.082.656.136 1.32.136 1.995 3.309 0 6 2.243 6 5s-2.691 5-6 5c-1.058 0-2.098-.241-3.014-.69-.397.552-.829 1.077-1.292 1.573 1.282.723 2.772 1.117 4.306 1.117 4.411 0 8-3.141 8-7s-3.589-7-8-7z"/><path d="m45.589 48.973c.745 2.078.424 4.239-.976 5.64-.929.929-2.181 1.381-3.509 1.381-1.694 0-3.511-.736-4.936-2.162-1.056-1.056-1.756-2.352-2.025-3.696-.632.215-1.276.405-1.941.541.363 1.7 1.236 3.306 2.526 4.595 1.624 1.623 3.704 2.587 5.859 2.714 2.108.124 4.04-.574 5.432-1.967 1.826-1.825 2.408-4.632 1.602-7.344-.653.161-1.333.261-2.032.298z"/><path d="m43 35c0-5.166-2.802-9.786-7.183-12.218l2.03 3.806c.118.221.212.454.312.684 1.83 2.165 2.841 4.901 2.841 7.728 0 6.617-5.383 12-12 12s-12-5.383-12-12c0-2.827 1.011-5.563 2.841-7.728.101-.23.194-.462.312-.684l2.03-3.806c-4.381 2.432-7.183 7.052-7.183 12.218 0 7.72 6.28 14 14 14s14-6.28 14-14z"/><path d="m37.583 52.418c1.764 1.764 4.283 2.116 5.616.781 1.002-1.003 1.044-2.735.161-4.326-1.497-.225-2.924-.753-4.166-1.552-.959.795-2.021 1.466-3.149 2.022.12 1.09.668 2.205 1.538 3.075z"/><path d="m55 20c-3.309 0-6 2.243-6 5s2.691 5 6 5 6-2.243 6-5-2.691-5-6-5zm0 8c-2.168 0-4-1.374-4-3s1.832-3 4-3 4 1.374 4 3-1.832 3-4 3z"/><ellipse cx="55" cy="25" rx="2" ry="1"/></svg>