<svg height="40px" viewBox="0 0 512 512" width="40px" xmlns="http://www.w3.org/2000/svg" xmlns:xlink="http://www.w3.org/1999/xlink"><linearGradient id="a" gradientUnits="userSpaceOnUse" x1="0" x2="512" y1="256" y2="256"><stop offset="0" stop-color="#00f1ff"/><stop offset=".231" stop-color="#00d8ff"/><stop offset=".5138" stop-color="#00c0ff"/><stop offset=".7773" stop-color="#00b2ff"/><stop offset="1" stop-color="#00adff"/></linearGradient><path d="m512 256c0 141.386719-114.613281 256-256 256s-256-114.613281-256-256 114.613281-256 256-256 256 114.613281 256 256zm0 0" fill="url(#a)"/><g fill="#fff"><path d="m408.074219 329.117188c-8.273438-.441407-15.34375 5.878906-15.800781 14.152343-.417969 7.585938-1.472657 16.484375-2.40625 24.339844-.058594.519531-.121094 1.03125-.179688 1.539063-14.96875-.207032-31.285156-1.996094-44.21875-4.871094-18.242188-4.054688-24.71875-9.164063-25.761719-10.871094v-175.828125c0-.199219.078125-.390625.21875-.53125.21875-.214844.355469-.28125.355469-.285156.019531-.007813.179688.011719.414062.089843 14.277344 4.824219 54.234376 33.738282 67.480469 108.617188 1.441407 8.15625 9.230469 13.601562 17.382813 12.15625 8.15625-1.441406 13.601562-9.226562 12.15625-17.382812-6.246094-35.308594-19.183594-66.894532-37.417969-91.34375-14.9375-20.03125-33.164063-34.78125-50-40.46875-11.3125-3.824219-23.113281-1.058594-31.574219 7.394531-5.816406 5.8125-9.015625 13.535156-9.015625 21.75v46.847656c-9.523437-6.136719-15.644531-12.390625-18.6875-19.066406-.003906-.085938-.015625-.171875-.019531-.257813v-46.542968c0-8.285157-6.71875-15-15-15-8.285156 0-15 6.714843-15 15v43.058593c-.292969.9375-.492188 1.902344-.597656 2.875-3.796875 7.875-9.738282 14.492188-18.113282 20.140625v-47.695312c0-8.214844-3.199218-15.941406-9.015624-21.75-8.457032-8.449219-20.257813-11.21875-31.570313-7.394532-20.980469 7.085938-43.34375 27.820313-59.824219 55.46875-14.660156 24.589844-32.132812 67.253907-32.132812 130.882813 0 9.664063 1.058594 23.6875 3.144531 41.6875 1.542969 13.296875 12.9375 23.320313 26.507813 23.320313 7.582031 0 34.265624-.496094 59.140624-6.925782 11.523438-2.976562 20.847657-6.835937 27.710938-11.476562 13.257812-8.964844 16.039062-19.679688 16.039062-27.089844v-94.847656c13.886719-6.367188 24.972657-14.199219 33.382813-23.644532 9.890625 10.429688 22.617187 17.984376 34.035156 23.59375v94.917969c0 7.414063 2.78125 18.128907 16.039063 27.089844 6.867187 4.640625 16.1875 8.503906 27.710937 11.480469 24.878907 6.425781 51.558594 6.925781 59.144531 6.925781 13.570313 0 24.964844-10.027344 26.503907-23.324219.175781-1.519531.363281-3.09375.554687-4.703125.984375-8.292969 2.097656-17.695312 2.566406-26.222656.457032-8.273437-5.878906-15.351563-14.152343-15.804687zm-215.78125 24.269531c-1.046875 1.707031-7.519531 6.816406-25.761719 10.871093-12.929688 2.875-29.246094 4.664063-44.207031 4.871094-1.6875-15.097656-2.574219-27.148437-2.574219-34.988281 0-101.066406 48.207031-150.042969 71.554688-157.929687.242187-.082032.386718-.09375.386718-.101563 0 .003906.140625.058594.382813.296875.140625.140625.21875.332031.21875.527344zm0 0"/><path d="m268.816406 119.460938c0 7.078124-5.738281 12.816406-12.816406 12.816406-7.082031 0-12.820312-5.738282-12.820312-12.816406 0-7.078126 5.738281-12.816407 12.820312-12.816407 7.078125 0 12.816406 5.738281 12.816406 12.816407zm0 0"/><path d="m268.816406 81.648438c0 7.078124-5.738281 12.816406-12.816406 12.816406-7.082031 0-12.820312-5.738282-12.820312-12.816406 0-7.078126 5.738281-12.820313 12.820312-12.820313 7.078125 0 12.816406 5.742187 12.816406 12.820313zm0 0"/></g></svg>