<svg enable-background="new 0 0 60 60.011"  viewBox="0 0 60 60.011"  xmlns="http://www.w3.org/2000/svg"><path d="m4.629 60.011c-.342 0-.688-.043-1.031-.13-1.413-.357-2.52-1.399-2.963-2.787-.628-1.966-.635-4.008-.635-4.094v-11c0-4.262 1.408-7.478 2.589-9.424.943-1.555 1.744-3.273 2.381-5.11 4.269-12.323 14.923-12.466 15.03-12.466 3.888 0 4 6.283 4 7v20c0 11.862-7.92 12-8 12-3.014 0-6.627 3.042-8.513 4.854-.782.753-1.803 1.157-2.858 1.157zm15.373-43.011c-.387.002-9.355.187-13.143 11.12-.683 1.971-1.544 3.818-2.561 5.493-1.048 1.729-2.298 4.587-2.298 8.387v11c0 .017.01 1.824.54 3.486.231.725.81 1.269 1.549 1.456.732.187 1.468-.008 2.013-.529 2.567-2.47 6.37-5.413 9.898-5.413.238-.004 6-.208 6-10v-20c-.003-1.63-.495-4.996-1.998-5z"/><path d="m32 8h-4c-.552 0-1-.447-1-1v-4c0-1.654 1.346-3 3-3s3 1.346 3 3v4c0 .553-.448 1-1 1zm-3-2h2v-3c0-.552-.449-1-1-1s-1 .448-1 1z"/><path d="m32 14h-4c-2.206 0-4-1.794-4-4s1.794-4 4-4h4c2.206 0 4 1.794 4 4s-1.794 4-4 4zm-4-6c-1.103 0-2 .897-2 2s.897 2 2 2h4c1.103 0 2-.897 2-2s-.897-2-2-2z"/><path d="m5 43c-.552 0-1-.447-1-1s.448-1 1-1c2.228 0 3.864-.584 4.863-1.736 1.45-1.672 1.151-4.099 1.147-4.122-.007-.047-.01-.095-.01-.142v-5c0-2.075 1.045-6 5-6 .185-.01 2-.206 2-4 0-.553.448-1 1-1s1 .447 1 1c0 5.932-3.96 6-4 6-2.966 0-3 3.837-3 4v4.939c.06.53.284 3.433-1.626 5.635-1.396 1.61-3.541 2.426-6.374 2.426z"/><path d="m5.999 53c-.15 0-.303-.034-.446-.105-.494-.247-.694-.848-.447-1.342.093-.186 2.317-4.553 5.894-4.553 2.774 0 4.678-.7 5.658-2.081 1.559-2.198.411-5.553.399-5.586-.668-2.005-.533-3.667.397-4.957 1.693-2.349 5.389-2.376 5.546-2.376.552 0 1 .447 1 1s-.448 1-1 1c-.784.004-3.022.289-3.926 1.55-.53.738-.572 1.793-.125 3.134.056.157 1.501 4.33-.652 7.381-1.375 1.948-3.83 2.935-7.297 2.935-2.317 0-4.088 3.413-4.105 3.447-.176.351-.529.553-.896.553z"/><path d="m11 49c-.552 0-1-.447-1-1 0-1.103-.897-2-2-2-.552 0-1-.447-1-1s.448-1 1-1c2.206 0 4 1.794 4 4 0 .553-.448 1-1 1z"/><path d="m8 37c-.552 0-1-.447-1-1 0-2.757 2.243-5 5-5 .552 0 1 .447 1 1s-.448 1-1 1c-1.654 0-3 1.346-3 3 0 .553-.448 1-1 1z"/><path d="m19 30c-2.206 0-4-2.243-4-5 0-.553.448-1 1-1s1 .447 1 1c0 1.626.916 3 2 3 .552 0 1 .447 1 1s-.448 1-1 1z"/><path d="m55.371 60.011c-1.055 0-2.076-.403-2.858-1.156-1.886-1.813-5.499-4.855-8.513-4.855-.08 0-8-.138-8-12v-20c0-.717.112-7 4-7 .107 0 10.761.143 15.03 12.466.637 1.837 1.438 3.556 2.381 5.11 1.181 1.946 2.589 5.162 2.589 9.424v11c0 .086-.007 2.128-.635 4.094-.443 1.388-1.55 2.43-2.963 2.787-.342.087-.689.13-1.031.13zm-15.373-43.011c-1.502.004-1.995 3.37-1.998 5.001v19.999c0 9.792 5.762 9.996 6.008 10 3.521 0 7.323 2.943 9.891 5.413.544.521 1.278.716 2.013.529.739-.188 1.317-.731 1.549-1.456.53-1.662.54-3.47.54-3.487v-10.999c0-3.8-1.25-6.658-2.299-8.387-1.016-1.675-1.878-3.522-2.561-5.493-3.788-10.933-12.756-11.118-13.143-11.12z"/><path d="m37 38c-.552 0-1-.447-1-1 0-3.309-2.691-6-6-6s-6 2.691-6 6c0 .553-.448 1-1 1s-1-.447-1-1v-9c0-.266.105-.52.293-.707 4.981-4.981 4.718-8.139 4.715-8.17-.004-.034-.008-.089-.008-.123v-6c0-.553.448-1 1-1h4c.552 0 1 .447 1 1v6c0 .042-.002.083-.008.124-.008.093-.217 3.237 4.715 8.169.188.187.293.441.293.707v9c0 .553-.448 1-1 1zm-7-9c2.387 0 4.533 1.051 6 2.714v-3.304c-5.113-5.244-5.067-8.779-5-9.467v-4.943h-2v4.943c.067.688.113 4.223-5 9.467v3.304c1.467-1.663 3.613-2.714 6-2.714zm2-10h.01z"/><path d="m55 43c-2.833 0-4.978-.816-6.374-2.426-1.91-2.202-1.686-5.104-1.626-5.635v-4.939c-.001-.161-.057-4-3-4-.04 0-4-.068-4-6 0-.553.448-1 1-1s1 .447 1 1c0 3.794 1.815 3.99 2.022 4 3.933 0 4.978 3.925 4.978 6v5c0 .047-.003.095-.01.142-.002.021-.311 2.454 1.158 4.135 1 1.143 2.632 1.723 4.852 1.723.552 0 1 .447 1 1s-.448 1-1 1z"/><path d="m54.001 52.999c-.366 0-.719-.201-.895-.55-.483-.96-2.164-3.449-4.106-3.449-3.467 0-5.922-.987-7.296-2.936-2.154-3.051-.708-7.224-.646-7.399.441-1.324.398-2.381-.134-3.119-1.084-1.504-3.896-1.546-3.924-1.546-.552 0-1-.447-1-1s.448-1 1-1c.157 0 3.853.027 5.546 2.376.93 1.29 1.065 2.952.403 4.94-.018.05-1.165 3.404.394 5.603.979 1.381 2.883 2.081 5.657 2.081 3.577 0 5.801 4.367 5.895 4.553.247.493.047 1.093-.446 1.34-.144.072-.297.106-.448.106z"/><path d="m49 49c-.552 0-1-.447-1-1 0-2.206 1.794-4 4-4 .552 0 1 .447 1 1s-.448 1-1 1c-1.103 0-2 .897-2 2 0 .553-.448 1-1 1z"/><path d="m52 37c-.552 0-1-.447-1-1 0-1.654-1.346-3-3-3-.552 0-1-.447-1-1s.448-1 1-1c2.757 0 5 2.243 5 5 0 .553-.448 1-1 1z"/><path d="m41 30c-.552 0-1-.447-1-1s.448-1 1-1c1.084 0 2-1.374 2-3 0-.553.448-1 1-1s1 .447 1 1c0 2.757-1.794 5-4 5z"/></svg>