<svg id="Capa_1" enable-background="new 0 0 512 512" height="20px" viewBox="0 0 512 512" width="20px" xmlns="http://www.w3.org/2000/svg"><g><g><path d="m215.715 296.675c-2.952 0-5.632-1.725-6.853-4.412l-16.402-36.066-.656 1.441c-1.222 2.687-3.902 4.412-6.853 4.412h-100.643c-4.159 0-7.529-3.37-7.529-7.529s3.37-7.529 7.529-7.529h95.796l5.503-12.099c1.222-2.687 3.902-4.412 6.853-4.412 2.952 0 5.632 1.725 6.853 4.412l16.402 36.066 39.034-85.834c1.221-2.687 3.902-4.412 6.853-4.412 2.952 0 5.632 1.725 6.853 4.412l25.822 56.78 8.2-18.031c1.221-2.687 3.902-4.412 6.853-4.412 2.952 0 5.632 1.725 6.853 4.412l10.513 23.118h100.994c4.159 0 7.529 3.37 7.529 7.529 0 4.158-3.37 7.529-7.529 7.529h-105.839c-2.952 0-5.632-1.725-6.853-4.412l-5.666-12.46-8.2 18.031c-1.221 2.687-3.902 4.412-6.853 4.412-2.952 0-5.631-1.725-6.853-4.412l-25.822-56.78-39.034 85.834c-1.224 2.687-3.903 4.412-6.855 4.412z"/></g><g><g><path d="m316.63 512h-54.913c-4.159 0-7.529-3.37-7.529-7.529s3.37-7.529 7.529-7.529h54.913c12.137 0 22.011-9.874 22.011-22.01v-128.762c0-4.159 3.37-7.529 7.529-7.529h128.764c12.136 0 22.009-9.874 22.009-22.011v-121.26c0-12.136-9.873-22.01-22.009-22.01h-128.764c-4.159 0-7.529-3.37-7.529-7.529v-128.764c0-12.136-9.874-22.009-22.011-22.009h-121.26c-12.137 0-22.011 9.873-22.011 22.009v76.438c0 4.159-3.37 7.529-7.529 7.529-4.158 0-7.529-3.37-7.529-7.529v-76.438c.001-20.439 16.63-37.067 37.069-37.067h121.26c20.44 0 37.069 16.628 37.069 37.067v121.235h121.235c20.439 0 37.067 16.628 37.067 37.068v121.26c0 20.44-16.628 37.069-37.067 37.069h-121.236v121.234c0 20.439-16.629 37.067-37.068 37.067zm-93.004 0h-28.256c-20.44 0-37.069-16.628-37.069-37.068v-121.234h-121.234c-20.439 0-37.067-16.629-37.067-37.068v-121.26c0-20.44 16.628-37.068 37.067-37.068h121.235v-10.478c0-4.159 3.37-7.529 7.529-7.529s7.529 3.37 7.529 7.529v18.006c0 4.159-3.37 7.529-7.529 7.529h-128.764c-12.136 0-22.009 9.874-22.009 22.01v121.26c0 12.137 9.873 22.011 22.009 22.011h128.763c4.159 0 7.529 3.37 7.529 7.529v128.763c0 12.136 9.874 22.01 22.011 22.01h28.256c4.159 0 7.529 3.37 7.529 7.529s-3.37 7.529-7.529 7.529zm93.005-28.763h-121.262c-4.579 0-8.305-3.726-8.305-8.305v-149.19c0-.444-.362-.806-.806-.806h-149.19c-4.579 0-8.305-3.726-8.305-8.306v-121.262c0-4.579 3.725-8.304 8.304-8.304h149.192c.444 0 .806-.362.806-.806v-149.19c0-4.58 3.726-8.306 8.306-8.306h121.26c4.579 0 8.305 3.725 8.305 8.305v149.192c0 .444.362.806.806.806h149.191c4.579 0 8.305 3.726 8.305 8.305v121.26c0 4.58-3.726 8.306-8.305 8.306h-71.179c-4.159 0-7.529-3.37-7.529-7.529s3.37-7.529 7.529-7.529h64.426v-107.756h-142.438c-8.747 0-15.863-7.116-15.863-15.863v-142.44h-107.757v142.439c0 8.747-7.116 15.863-15.863 15.863h-142.439v107.756h142.438c8.747 0 15.863 7.116 15.863 15.863v142.44h107.756v-142.438c0-8.747 7.116-15.863 15.863-15.863h41.622c4.159 0 7.529 3.37 7.529 7.529 0 4.158-3.37 7.529-7.529 7.529h-41.622c-.444 0-.806.362-.806.806v149.191c.002 4.577-3.724 8.303-8.303 8.303z"/></g></g></g></svg>