<svg height="40px" viewBox="0 0 512 512" width="40px" xmlns="http://www.w3.org/2000/svg" xmlns:xlink="http://www.w3.org/1999/xlink"><linearGradient id="a" gradientUnits="userSpaceOnUse" x1="0" x2="512" y1="256" y2="256"><stop offset="0" stop-color="#00f1ff"/><stop offset=".231" stop-color="#00d8ff"/><stop offset=".5138" stop-color="#00c0ff"/><stop offset=".7773" stop-color="#00b2ff"/><stop offset="1" stop-color="#00adff"/></linearGradient><path d="m512 256c0 141.386719-114.613281 256-256 256s-256-114.613281-256-256 114.613281-256 256-256 256 114.613281 256 256zm0 0" fill="url(#a)"/><g fill="#fff"><path d="m422.25 174.613281c0-24.136719-9.921875-46.09375-27.941406-61.820312-16.917969-14.769531-39.613282-22.949219-63.960938-23.035157-24.613281 0-46.039062 6.121094-64.625 18.546876-14.707031-.371094-24.425781-4.035157-35.574218-8.246094-12.660157-4.789063-26.996094-10.207032-48.582032-10.300782-.066406 0-.132812 0-.199218 0h-.382813c-.132813 0-.261719 0-.390625.003907-51.839844.519531-90.847656 36.882812-90.847656 84.851562 0 37.007813 25.960937 83.125 34.800781 97.757813-2.414063 37.617187 21.800781 103.417968 49.871094 133.109375 10.527343 11.136719 21.269531 16.765625 31.972656 16.761719.78125 0 1.5625-.039063 2.34375-.097657 11.21875-.238281 17.433594-5.046875 20.675781-9.109375 8.398438-10.527344 5.222656-24.503906 1.855469-39.296875-6-26.363281-12.195313-53.582031 24.835937-73.484375 36.949219 19.308594 30.710938 46.644532 24.671876 73.125-3.410157 14.949219-6.632813 29.070313 1.808593 39.652344 3.238281 4.0625 9.441407 8.871094 20.617188 9.113281.792969.0625 1.585937.101563 2.382812.101563 16.164063 0 32.222657-12.71875 47.773438-37.855469 4.359375-7.046875 2.179687-16.292969-4.863281-20.648437-7.050782-4.359376-16.292969-2.179688-20.648438 4.863281-9.457031 15.289062-16.675781 21.082031-20.214844 22.910156.570313-3.472656 1.570313-7.867187 2.394532-11.464844 6.4375-28.226562 18.425781-80.773437-47.945313-110.195312-3.933594-1.746094-8.425781-1.714844-12.335937.078125-65.972657 30.28125-54.105469 82.441406-47.726563 110.460937.789063 3.476563 1.75 7.707031 2.316406 11.085938-1.921875-.96875-5.132812-3.179688-9.589843-8.226563-22.351563-25.300781-43.992188-86.070312-39.921876-112.109375.570313-3.644531-.222656-7.367187-2.226562-10.464843-9.136719-14.121094-32.84375-57.105469-32.84375-86.0625 0-35.820313 30.941406-54.699219 61.546875-54.855469 16.25.046875 26.449219 3.902343 38.242187 8.359375 5.597657 2.117187 11.523438 4.355468 18.253907 6.195312-3.871094 4.816406-7.585938 10.007813-11.132813 15.617188-4.429687 7-2.34375 16.265625 4.65625 20.695312 7 4.429688 16.269532 2.34375 20.695313-4.65625 19.949219-31.527344 44.839843-46.214844 78.28125-46.214844 30.789062.109376 61.957031 18.988282 61.957031 54.859376 0 28.855468-23.710938 71.914062-32.84375 86.0625-2.003906 3.09375-2.796875 6.820312-2.226562 10.464843 1.492187 9.546875-.578126 25.175781-5.679688 42.875-2.296875 7.960938 2.296875 16.273438 10.257812 18.570313 1.386719.398437 2.785157.589844 4.160157.589844 6.515625 0 12.511719-4.277344 14.40625-10.851563 4.023437-13.953125 8.269531-33.289063 7.140625-49.976563 8.851562-14.652343 34.785156-60.746093 34.785156-97.738281zm0 0"/><path d="m370.695312 174.613281c0-9.445312-3.476562-17.292969-10.339843-23.324219-7.515625-6.605468-18.167969-10.28125-30-10.351562-.03125 0-.0625 0-.09375 0-8.242188 0-14.945313 6.65625-14.996094 14.910156-.050781 8.28125 6.625 15.039063 14.910156 15.089844 5.269531.03125 8.882813 1.574219 10.375 2.882812.042969.039063.082031.074219.113281.105469.015626.148438.03125.371094.03125.6875 0 8.285157 6.714844 15 15 15 8.285157 0 15-6.714843 15-15zm0 0"/></g></svg>